<svg width="724" height="170" viewBox="0 0 724 170" fill="none" xmlns="http://www.w3.org/2000/svg">
<g style="mix-blend-mode:plus-darker">
<path d="M223.832 49.997C223.832 44.5338 232.788 37.1826 244.734 37.1826C254.125 37.1826 260.309 43.4893 260.309 53.5722C260.309 59.2496 259.887 62.1821 259.031 67.2302L259.453 67.4444C266.71 46.0067 276.943 37.1826 289.107 37.1826C298.919 37.1826 305.959 45.3774 305.959 57.5625C305.959 60.5083 305.538 63.4407 304.899 67.2302L305.538 67.4444C312.795 46.221 322.172 37.1826 334.118 37.1826C344.991 37.1826 353.743 45.7925 353.743 63.6684C353.743 77.3264 351.188 88.2528 351.188 104.227C351.188 113.895 352.683 116.412 355.876 116.412C358.228 116.412 362.06 114.524 364.629 112.422C365.689 113.266 367.184 115.154 367.184 117.256C367.184 123.563 359.505 130.499 348.633 130.499C337.108 130.499 329.008 123.348 329.008 106.745C329.008 96.0325 331.781 84.8918 331.781 72.4925C331.781 63.039 329.008 59.0487 324.958 59.0487C317.918 59.0487 308.527 75.0232 304.912 95.8316C305.13 103.812 307.046 113.908 307.046 118.943C307.046 125.464 300.862 130.499 294.04 130.499C288.278 130.499 282.515 124.192 282.515 110.534C282.515 95.8182 285.288 84.8918 285.288 72.4925C285.288 63.039 282.733 59.0487 278.669 59.0487C271.63 59.0487 262.239 75.0232 258.406 95.8316C258.623 103.812 260.54 113.908 260.54 118.943C260.54 125.464 254.356 130.499 247.316 130.499C241.554 130.499 236.009 124.192 236.009 110.534C236.009 96.876 240.059 79.0135 240.059 63.039C240.059 55.6878 238.564 52.742 235.153 52.742C232.802 52.742 229.608 53.5856 226.836 55.2593C225.341 54.0007 223.846 52.5277 223.846 50.0104L223.832 49.997Z" fill="#707070"/>
<path d="M364.18 73.5369C364.18 69.1182 372.715 61.767 383.383 61.767C392.978 61.767 400.453 67.6453 400.453 79.8437C400.453 89.7257 398.319 100.224 398.319 109.891C398.319 115.984 399.814 117.671 402.804 117.671C405.155 117.671 407.071 116.827 408.349 116.198C409.205 117.256 409.844 119.144 409.844 120.617C409.844 125.236 402.383 130.499 393.413 130.499C383.383 130.499 376.344 124.192 376.344 112.422C376.344 104.442 378.477 95.8182 378.477 85.9363C378.477 77.9557 376.126 76.2686 372.932 76.2686C370.581 76.2686 368.665 76.8979 366.314 77.7415C365.254 76.8979 364.18 75.0099 364.18 73.5369ZM392.122 30.0322C397.667 30.0322 401.934 34.2368 401.934 40.3293C401.934 46.0067 398.088 51.885 391.266 51.885C385.721 51.885 381.454 47.6805 381.454 41.588C381.454 36.1248 384.647 30.0322 392.122 30.0322Z" fill="#707070"/>
<path d="M455.889 118.3C455.889 124.179 449.27 130.485 439.458 130.485C427.729 130.485 417.917 123.549 417.917 101.482C417.917 75.2107 421.763 50.4121 425.174 38.6421C427.525 30.4473 429.224 27.93 433.926 27.93C441.184 27.93 449.705 34.2368 449.705 39.7C449.705 43.2752 446.715 52.0993 441.809 61.767C440.096 68.4889 439.036 82.1469 439.036 97.0769C439.036 113.266 441.809 116.827 446.294 116.827C449.705 116.827 451.839 115.355 453.551 113.882C454.828 114.725 455.902 116.399 455.902 118.3H455.889Z" fill="#707070"/>
<path d="M452.26 72.2784C452.26 67.8596 460.359 61.7671 470.172 61.7671C481.479 61.7671 486.589 67.4446 487.663 89.9267C488.519 111.15 490.218 115.355 493.425 115.355C497.91 115.355 502.177 104.843 503.658 76.0544C504.08 63.8694 506.01 60.2942 511.555 60.2942C517.738 60.2942 526.49 66.6009 526.49 73.9522C526.49 81.9327 523.718 94.1312 519.233 105.058C516.243 151.08 499.608 170 476.79 170C463.349 170 454.611 162.22 454.611 152.137C454.611 140.997 463.363 132.173 482.131 123.764V123.134C474.874 120.403 469.125 113.467 467.413 96.4477C465.918 79.2145 463.145 75.4251 459.517 75.4251C458.022 75.4251 456.323 75.8402 454.611 76.6838C453.333 75.6259 452.26 74.1664 452.26 72.265V72.2784ZM497.91 122.933C495.559 125.879 492.582 128.812 486.181 133.231C475.948 140.167 472.958 145.63 472.958 151.522C472.958 155.94 475.309 158.672 479.576 158.672C488.328 158.672 497.285 145.014 498.562 123.161L497.923 122.947L497.91 122.933Z" fill="#707070"/>
<path d="M574.696 118.3C574.696 124.179 568.077 130.485 558.279 130.485C546.55 130.485 536.738 123.549 536.738 101.482C536.738 75.2107 540.584 50.4121 543.995 38.6421C546.346 30.4473 548.045 27.93 552.734 27.93C559.991 27.93 568.526 34.2368 568.526 39.7C568.526 43.2752 565.536 52.0993 560.63 61.767C558.917 68.4889 557.857 82.1469 557.857 97.0769C557.857 113.266 560.63 116.827 565.115 116.827C568.526 116.827 570.66 115.355 572.372 113.882C573.649 114.725 574.723 116.399 574.723 118.3H574.696Z" fill="#707070"/>
<path d="M577.251 98.965C577.251 76.2686 593.668 61.1377 613.945 61.1377C631.436 61.1377 644.659 72.9076 644.659 92.8724C644.659 115.569 628.242 130.485 607.965 130.485C590.474 130.485 577.251 118.715 577.251 98.965ZM600.504 97.7063C600.504 111.994 605.193 117.671 610.316 117.671C616.296 117.671 621.406 109.048 621.406 94.1311C621.406 79.2144 616.717 73.952 611.594 73.952C605.627 73.952 600.504 82.9905 600.504 97.7063Z" fill="#707070"/>
<path d="M700.964 73.3227C703.519 63.0257 706.727 58.6069 711.633 58.6069C717.395 58.6069 724 63.8559 724 67.8596C724 71.2205 722.94 74.7957 719.094 82.9905C718.238 87.195 717.599 90.5559 717.599 97.2778C717.599 107.361 719.515 114.926 719.515 129.013C719.515 153.811 703.302 170 680.049 170C663.631 170 653.384 161.39 653.384 149.192C653.384 140.153 660.845 131.329 673.226 126.709V126.08C663.196 123.349 654.24 113.051 654.24 98.1214C654.24 79.4153 668.959 61.767 684.316 61.767C691.573 61.767 697.757 65.3422 700.312 73.3227H700.964ZM684.968 130.7C676.434 137.221 673.444 142.255 673.444 147.933C673.444 154.655 677.711 158.016 683.473 158.016C692.212 158.016 699.252 150.45 699.252 133.632C699.252 128.383 698.396 121.648 697.757 118.716H697.336C694.781 123.134 692.008 125.652 684.968 130.7ZM689.453 77.1122C682.413 77.1122 676.447 84.8919 676.447 98.7641C676.447 110.949 680.497 116.627 685.621 116.627C692.443 116.627 698.627 103.598 699.918 83.6332C697.363 79.4287 693.299 77.1122 689.467 77.1122H689.453Z" fill="#707070"/>
<g opacity="0.7">
<path d="M138.073 90.6563L179.758 49.585C179.722 49.5131 179.673 49.4293 179.637 49.3574C179.308 48.7587 178.968 48.172 178.628 47.5853C178.385 47.1662 178.142 46.7471 177.887 46.328C177.546 45.7532 177.194 45.1785 176.829 44.6157C176.574 44.2086 176.307 43.8014 176.039 43.3823C175.675 42.8196 175.31 42.2568 174.921 41.694C174.654 41.3108 174.386 40.9276 174.119 40.5445C173.39 39.5147 172.636 38.4849 171.871 37.4911C171.591 37.1199 171.312 36.7487 171.02 36.3775C170.619 35.8746 170.206 35.3716 169.792 34.8687C169.464 34.4736 169.136 34.0665 168.796 33.6713C168.383 33.1923 167.97 32.7134 167.544 32.2344C167.192 31.8393 166.827 31.4321 166.463 31.037C166.037 30.582 165.624 30.115 165.186 29.6719C164.798 29.2648 164.396 28.8577 163.995 28.4626C163.582 28.0435 163.157 27.6124 162.731 27.1933C161.966 26.4509 161.188 25.7085 160.386 24.99C159.985 24.6308 159.572 24.2716 159.171 23.9243C158.697 23.5053 158.223 23.0862 157.737 22.6671C157.311 22.3078 156.874 21.9486 156.436 21.5894C155.95 21.1942 155.476 20.8111 154.99 20.4279C154.552 20.0806 154.115 19.7454 153.665 19.4101C153.143 19.0149 152.62 18.6318 152.085 18.2486C151.66 17.9492 151.247 17.6379 150.821 17.3386C150.141 16.8596 149.448 16.3926 148.755 15.9376C148.354 15.6742 147.941 15.3988 147.54 15.1353C146.701 14.5965 145.863 14.0816 145.012 13.5667C144.623 13.3272 144.222 13.1117 143.821 12.8842C143.177 12.513 142.533 12.1418 141.889 11.7945C141.463 11.567 141.038 11.3275 140.601 11.112C139.944 10.7648 139.288 10.4295 138.632 10.1062C138.218 9.90263 137.805 9.68709 137.38 9.48353C136.614 9.11233 135.849 8.76508 135.071 8.41783C134.755 8.27414 134.439 8.13045 134.111 7.98676C133.017 7.50779 131.923 7.05277 130.805 6.6217C130.538 6.51394 130.258 6.41814 129.991 6.32235C129.128 5.99905 128.265 5.67574 127.39 5.36441C127.001 5.2327 126.6 5.10098 126.199 4.96927C125.421 4.70583 124.643 4.46636 123.866 4.22687C123.452 4.09516 123.039 3.97542 122.626 3.85568C121.8 3.6162 120.973 3.38868 120.135 3.17314C119.879 3.1013 119.624 3.04143 119.369 2.96958L138.036 90.6802L138.073 90.6563Z" fill="#00A651"/>
<path d="M179.71 49.4892C179.71 49.4892 179.746 49.5491 179.758 49.573L138.073 90.6443L154.577 168.177C176.829 150.934 191.146 124.184 191.146 94.1288C191.146 77.9637 187.002 62.7565 179.722 49.4652L179.71 49.4892Z" fill="#FFF200"/>
<path d="M12.5664 47.5373C4.58175 61.2836 0 77.1853 0 94.1527C0 124.256 14.3529 151.042 36.6662 168.273L55.8075 90.1413L12.5664 47.5373Z" fill="#EC008C"/>
<path d="M77.4648 1.70027C69.2127 3.25691 61.3375 5.86728 53.9848 9.37571C53.9483 9.38768 53.9119 9.41162 53.8754 9.4236C52.6844 9.99836 51.5055 10.5851 50.351 11.2078C50.3267 11.2197 50.3023 11.2317 50.278 11.2437C47.9811 12.465 45.7449 13.7702 43.5695 15.1712C43.3386 15.3149 43.1077 15.4705 42.8767 15.6142C42.0625 16.1411 41.2725 16.6799 40.4704 17.2307C40.1909 17.4223 39.9114 17.6259 39.6319 17.8175C38.769 18.4282 37.9183 19.0628 37.0797 19.6974C36.8366 19.877 36.5936 20.0686 36.3626 20.2482C35.5605 20.8709 34.7706 21.5055 33.9928 22.1521C33.5674 22.5113 33.142 22.8706 32.7288 23.2298C32.267 23.6249 31.8052 24.0321 31.3555 24.4392C30.8815 24.8583 30.4076 25.2893 29.9458 25.7204C29.5933 26.0557 29.2408 26.391 28.8884 26.7262C27.0654 28.4864 25.3032 30.3065 23.6261 32.1984C23.4438 32.402 23.2736 32.5936 23.0913 32.7971C22.5201 33.4557 21.9489 34.1263 21.3899 34.7968C21.2927 34.9166 21.2076 35.0243 21.1104 35.1441C17.9384 39.0237 15.0824 43.1548 12.5545 47.5014L55.8078 90.1174L77.4648 1.67632V1.70027Z" fill="#2E3192"/>
<path d="M119.405 2.95762C111.785 1.02978 103.801 0 95.5729 0C89.3747 0 83.3345 0.598699 77.4646 1.71229L55.8076 90.1534L97.2014 130.937L138.073 90.6683L119.405 2.95762Z" fill="#00AEEF"/>
</g>
</g>
</svg>
